<svg width="52" height="43" viewBox="0 0 52 43" fill="none" xmlns="http://www.w3.org/2000/svg">
<path d="M50.0266 41.3195C50.337 41.0099 50.5833 40.642 50.7513 40.2371C50.9194 39.8321 51.0059 39.398 51.0059 38.9595C51.0059 38.5211 50.9194 38.0869 50.7513 37.682C50.5833 37.277 50.337 36.9092 50.0266 36.5995L27.8666 14.4395C27.6199 14.1923 27.3268 13.9962 27.0042 13.8624C26.6816 13.7285 26.3358 13.6597 25.9866 13.6597C25.6373 13.6597 25.2915 13.7285 24.9689 13.8624C24.6463 13.9962 24.3533 14.1923 24.1066 14.4395L1.94656 36.5995C0.63989 37.9062 0.63989 40.0129 1.94656 41.3195C3.25322 42.6262 5.35989 42.6262 6.66656 41.3195L25.9999 22.0129L45.3332 41.3462C46.6132 42.6262 48.7466 42.6262 50.0266 41.3195Z" fill="#22223B"/>
<line x1="4" y1="3" x2="48" y2="3" stroke="#22223B" stroke-width="6" stroke-linecap="round"/>
</svg>
