<svg width="50" height="50" viewBox="0 0 50 50" fill="none" xmlns="http://www.w3.org/2000/svg">
<path d="M43.4998 6.45624C41.9728 4.92916 40.1353 4.16666 37.9853 4.16666H11.9707C9.82067 4.16666 7.98317 4.92916 6.45609 6.45624C4.929 7.98332 4.1665 9.82082 4.1665 11.9708V37.9854C4.1665 40.1354 4.929 41.9729 6.45609 43.5C7.98317 45.0271 9.82067 45.7896 11.9707 45.7896H18.0415C18.4373 45.7896 18.7353 45.775 18.9353 45.7479C19.1679 45.7013 19.378 45.5771 19.5311 45.3958C19.729 45.1875 19.829 44.8854 19.829 44.4896L19.8144 42.6458C19.8061 41.4708 19.8019 40.5417 19.8019 39.8542L19.1769 39.9625C18.7811 40.0354 18.2811 40.0667 17.6748 40.0583C17.0429 40.0467 16.4131 39.9832 15.7915 39.8687C15.1298 39.7466 14.507 39.468 13.9748 39.0562C13.4175 38.6346 13.0019 38.0533 12.7832 37.3896L12.5123 36.7646C12.2841 36.2716 11.9973 35.8078 11.6582 35.3833C11.2707 34.8771 10.8769 34.5354 10.479 34.3542L10.2915 34.2187C10.1608 34.1251 10.0418 34.016 9.93734 33.8937C9.83753 33.7803 9.75536 33.6525 9.69359 33.5146C9.63942 33.3875 9.68525 33.2833 9.829 33.2021C9.97484 33.1187 10.2353 33.0792 10.6165 33.0792L11.1582 33.1625C11.5186 33.2333 11.9665 33.45 12.4978 33.8104C13.0354 34.1769 13.4845 34.6588 13.8123 35.2208C14.229 35.9604 14.729 36.525 15.3165 36.9146C15.904 37.3021 16.4957 37.4979 17.0915 37.4979C17.6873 37.4979 18.2019 37.4521 18.6373 37.3625C19.0584 37.2754 19.4676 37.1383 19.8561 36.9542C20.0186 35.7458 20.4603 34.8125 21.1832 34.1625C20.2465 34.0707 19.3181 33.9077 18.4061 33.675C17.5161 33.4305 16.6601 33.0757 15.8582 32.6187C15.0191 32.1619 14.278 31.5447 13.6769 30.8021C13.0998 30.0792 12.6248 29.1312 12.254 27.9583C11.8853 26.7833 11.6998 25.4271 11.6998 23.8917C11.6998 21.7062 12.4123 19.8458 13.8394 18.3083C13.1728 16.6667 13.2353 14.8229 14.029 12.7833C14.554 12.6187 15.3311 12.7417 16.3603 13.1479C17.3894 13.5542 18.1436 13.9021 18.6228 14.1896C19.1019 14.4812 19.4853 14.725 19.7748 14.9229C21.4685 14.4516 23.2189 14.2146 24.9769 14.2187C26.7665 14.2187 28.4998 14.4542 30.1811 14.9229L31.2103 14.2729C32.0019 13.7976 32.8369 13.3986 33.704 13.0812C34.6623 12.7187 35.3915 12.6208 35.8998 12.7833C36.7123 14.825 36.7832 16.6667 36.1144 18.3104C37.5415 19.8458 38.2561 21.7062 38.2561 23.8937C38.2561 25.4292 38.0707 26.7896 37.6998 27.9708C37.3311 29.1542 36.8519 30.1021 36.2644 30.8167C35.6528 31.5497 34.9086 32.1611 34.0707 32.6187C33.1957 33.1062 32.3457 33.4583 31.5228 33.675C30.6108 33.9084 29.6825 34.0721 28.7457 34.1646C29.6832 34.9771 30.154 36.2583 30.154 38.0104V44.4896C30.154 44.7958 30.1978 45.0437 30.2894 45.2333C30.3316 45.3247 30.3916 45.4066 30.4661 45.4742C30.5405 45.5419 30.6278 45.5938 30.7228 45.6271C30.9228 45.6979 31.0978 45.7437 31.2519 45.7604C31.4061 45.7812 31.6269 45.7875 31.9144 45.7875H37.9853C40.1353 45.7875 41.9728 45.025 43.4998 43.4979C45.0248 41.9729 45.7894 40.1333 45.7894 37.9833V11.9708C45.7894 9.82082 45.0248 7.98332 43.4978 6.45624H43.4998Z" fill="#22223B"/>
</svg>
