<svg width="64" height="64" viewBox="0 0 64 64" fill="none" xmlns="http://www.w3.org/2000/svg">
<path d="M7.97294 19.68C7.66252 19.9896 7.41624 20.3575 7.24819 20.7624C7.08015 21.1674 6.99365 21.6015 6.99365 22.04C6.99365 22.4784 7.08015 22.9126 7.24819 23.3176C7.41624 23.7225 7.66252 24.0904 7.97294 24.4L30.1329 46.56C30.3796 46.8072 30.6727 47.0033 30.9953 47.1371C31.3179 47.271 31.6637 47.3398 32.0129 47.3398C32.3622 47.3398 32.708 47.271 33.0306 47.1371C33.3532 47.0033 33.6462 46.8072 33.8929 46.56L56.0529 24.4C57.3596 23.0933 57.3596 20.9867 56.0529 19.68C54.7463 18.3733 52.6396 18.3733 51.3329 19.68L31.9996 38.9867L12.6663 19.6533C11.3863 18.3733 9.25294 18.3733 7.97294 19.68Z" fill="#F2E9E4"/>
</svg>
